<svg width="40" height="40" viewBox="0 0 40 40" fill="none" xmlns="http://www.w3.org/2000/svg">
<rect width="40" height="40" />
<path d="M6.48405 17.1061C7.28139 18.5128 8.03541 19.8522 8.79807 21.1864C9.93172 23.1697 11.7639 23.7405 13.6771 22.563C15.217 21.6153 16.6631 20.5069 18.1367 19.4493C18.5204 19.1739 18.9621 18.8084 18.5258 18.2818C18.1057 17.7747 17.7204 18.1487 17.3207 18.4423C15.9123 19.477 14.5149 20.5342 13.0484 21.4772C11.7445 22.3157 10.6242 21.9459 9.84864 20.5774C9.06709 19.1983 8.28403 17.8201 7.50895 16.4373C6.74825 15.0801 7.13578 13.8466 8.5194 13.1683C14.4282 10.2715 20.2692 10.49 26.0598 13.5414C27.3859 14.2402 28.7249 14.9173 30.0853 15.5423C30.7285 15.8377 31.423 16.0681 32.1174 16.1856C33.8304 16.4755 35.3471 15.6193 36.0606 14.0528C36.7336 12.5754 36.3904 10.8273 35.2139 9.73913C33.9769 8.59511 32.2417 8.4383 30.7632 9.38501C30.3006 9.68127 29.9493 9.68174 29.5965 9.25785C29.4668 9.10199 29.3176 8.96325 29.1809 8.81325C28.6792 8.26266 28.6935 8.01413 29.2523 7.51997C31.908 5.17143 36.12 5.58769 38.3063 8.46948C40.2621 11.0474 40.4283 13.9017 39.2953 16.8651C38.33 19.39 36.593 21.342 34.6473 23.1176C34.2486 23.4815 33.8534 23.8596 33.4114 24.1621C30.6901 26.0245 29.4956 28.7991 28.9608 31.9514C28.7864 32.9798 28.7342 34.0312 28.6524 35.0743C28.5928 35.8327 28.4635 35.9847 27.7227 35.9893C27.0094 35.9936 26.2955 35.9721 25.583 35.9962C25.0737 36.0135 24.8124 35.8095 24.699 35.2907C24.2344 33.1638 22.6555 31.7968 20.6741 31.7704C18.6889 31.744 17.0497 33.1218 16.5644 35.2753C16.4478 35.7925 16.2184 36.0153 15.7018 35.996C15.0563 35.9718 14.4092 35.9905 13.7628 35.9902C12.7512 35.9899 12.7674 35.9854 12.5138 35.0049C12.0899 33.3664 11.0662 32.2969 9.45876 31.8958C7.84258 31.4925 6.42755 31.9691 5.37817 33.2719C4.94338 33.8117 4.67162 34.5285 4.46633 35.2091C4.29989 35.7609 4.08512 36.0231 3.50597 35.9984C2.72716 35.9652 1.94579 35.979 1.16592 35.9941C0.708702 36.0029 0.449648 35.7959 0.376193 35.3438C-0.425084 30.4119 -0.061383 25.6692 2.59397 21.3107C3.59409 19.669 4.86584 18.2812 6.48405 17.1061ZM27.9333 18.5728C27.9083 18.0581 27.6217 17.6552 27.0803 17.4687C26.5559 17.2882 26.11 17.4633 25.7649 17.8835C25.3623 18.3735 25.4217 18.6277 25.9791 18.9177C26.2768 19.0726 26.5769 19.2227 26.8763 19.3743C27.5437 19.7122 27.9384 19.4405 27.9333 18.5728Z" fill="#02303A"/>
</svg>
